<?xml version="1.0" encoding="UTF-8"?><svg id="Layer_1" xmlns="http://www.w3.org/2000/svg" viewBox="0 0 3067.32 2610.4"><defs><style>.cls-1{fill:#231f20;}</style></defs><path class="cls-1" d="M2114.01,2209.62l-291.37,400.78h1244.68L2488.27,20.23l-2.21-9.83-843.21.6L0,2610.34h1351.66l-189.68-398.71,377.56-633.71,25.49,100.3-316.2,545.76,474.24-351.99,317.99,351.99-132.02-510.13,72.45-115.89,132.53,611.65ZM1730.71,1775.71c-35.94,29.61-289.16,238.93-289.16,238.93,0,0,177.66-307.28,192.05-332.13-5.38-20.76-29.03-113.95-29.03-113.95h314.34s-68.34,109.17-81.45,130.19c8.47,28.16,96.96,323.95,96.96,323.95,0,0-178.89-216.96-203.72-246.99M1580.55,1509.1l237.75-399.06h57.46l86.47,399.06h-381.68ZM115.66,2546.94L1685.95,71.81l11.95,17.57,157.27,231.12-374.01,166.26,157.4,277.29-487.18,235.13,173.8,311.62-502.68,315.07,158.17,376.21-824.38,519.28h0s-40.64,25.59-40.64,25.59ZM1244.71,2546.94H219.08l839-520.2-155.21-380.83,503.92-317.55-162.95-302.07,486.97-232.98-159.62-276.43,370.6-166.72-138.8-213.14-.05-.08-8.13-12.49-34.38-52.64,675.32.36,550.38,2474.84-1028.94.25,236.23-323.28-262.96-1173.03h-151.67l-696.41,1161.37,162.33,334.63Z"/></svg>