<?xml version="1.0" encoding="UTF-8"?><svg id="Layer_1" xmlns="http://www.w3.org/2000/svg" viewBox="0 0 3067.32 2610.4"><defs><style>.cls-1{fill:#231f20;}</style></defs><path id="path4" class="cls-1" d="M1383.13,1167.93v261.75s332.67,21.43,434.53-40.25c-18.23,57.81-12.48,246.89,0,278.38-128.73-66.04-434.53-39.72-434.53-39.72v263.39h492.87l104.98-122.09v-451.33l-121.65-141.2c-72.31-8-330.83-8.93-476.17-8.93h-.03ZM620.57,231.68c102.33-48.75,211.26-151.92,249.89-221.28,98.64,46.59,1005.56,39.72,1110.41,0,63.24,92.44,131.2,144.12,226.99,175.42-8.96,88.71-6.21,120.1,22.71,191.22h-249.7l-104.85-117.07h-889.3l-116.49,102.53v471.61l116.12,112.42,147.03,6.12c0-175.1,1.81-208.59-127.03-242.81,42.89-85.9,51.52-95.97,62.81-203.09,110.29,37.02,1249.88,16.84,1299.43-11.55-7.93,111.61,55.11,323.64,97.49,402.76h-249.74c-12.69-86.81-67.5-153.89-154.69-170.2h-678.54v224.9s527.97,14.36,597.73-9.55c34.7,90.14,159.54,222.32,249.7,258.93-30.27,183.95-24.63,498.53,0,689.35-98.23,48.77-198.53,148.91-249.67,249.89-124.18-34.21-597.76-17.37-597.76-17.37v141.33c24.44,96.4,76.24,119.6,167.12,127.51,0,0-72.99,137.28-75.96,217.66h-426.67c-1.88-78.41-76.07-217.66-76.07-217.66,82.04-3.84,149.37-52.3,161.85-127.48v-141.34s-149.75-5.61-262.95,17.37c-34.25-76.85-159.14-214.52-249.88-249.89,20.96-55.21,11.23-400.04-19.34-472.73h269.24l-.21,350.76,104.93,122.09h158.24v-723.5s-138.5-6.86-262.93,2.62c-35.77-69.58-142.59-181.67-249.91-234.6,33.54-127.38,36.46-584.1,0-704.34h-.01Z"/></svg>