<?xml version="1.0" encoding="UTF-8"?><svg id="Layer_1" xmlns="http://www.w3.org/2000/svg" viewBox="0 0 3067.32 2610.4"><defs><style>.cls-1{fill:#231f20;}</style></defs><path class="cls-1" d="M2137.3,563.74l-1051.74.09s62.85,90.41,62.85,262.23v133h-222.6c-53.43,0-96.74-43.32-96.74-96.74V321.55c0-53.21,43.54-96.74,96.74-96.74h721.82c55.54.76,92.05,55.89,84.46,110.89-7.34,53.27-35.16,85.18-35.16,85.18h286.42v-123.99c0-158.24-128.25-286.48-286.48-286.48h-854.13c-158.21,0-286.45,128.25-286.45,286.48v595.37c0,158.21,128.25,286.45,286.45,286.45h788.1c53.43,0,96.74,43.32,96.74,96.74v515.79c0,53.18-43.51,96.68-96.68,96.68h-209.71v-606.17h-272.75v606.17h-238.1c-53.4,0-96.65-43.28-96.65-96.68v-51.51c0-171.34,46.06-210.94,46.06-210.94h-286.42v292.31c0,158.17,128.25,286.42,286.42,286.42h288.69v240.65c0,171.81-62.85,262.23-62.85,262.23h1051.87c206.31,0,373.59-167.25,373.59-373.59V937.42c-.03-206.4-167.34-373.68-373.75-373.68ZM2238.26,2242.07c0,81.47-66.06,147.53-147.53,147.53h-669.56v-282.04h292.75c158.17,0,286.42-128.25,286.42-286.42v-575.61c0-158.21-128.25-286.48-286.48-286.48h-292.72v-174.46h669.62c81.47,0,147.49,66.03,147.49,147.49v1310Z"/></svg>