<?xml version="1.0" encoding="UTF-8"?><svg id="Layer_1" xmlns="http://www.w3.org/2000/svg" viewBox="0 0 3067.32 2610.4"><defs><style>.cls-1{fill:#231f20;}</style></defs><path class="cls-1" d="M2430.51,2428.1c-88.35-87.55-248.8-546.59-382.7-577.18,49.34-24.53,358.26-95.49,360.79-429.22-.19-360.94-334.05-478.96-668.2-480.12-71.12-.18-200.6,4.59-332.24,11.99-167.12,9.9-252.83,17.33-380.26,27.37l-.42,122.7c179.67.67,217.05,42.59,216.38,238.42l-.77,234.32c-247.41-52.88-408.59-329.53-407.21-716.58,1.28-409.62,194.61-697,475.88-696.05,105.66.37,198.63,42.97,272.35,119.79,73.71,76.96,126.19,188.1,148.9,322.91l99.48.34-17.15-552.34-78.21-.24c-8.58,26.4-19.13,36.96-38.24,36.82-52.81-.19-177.28-79.88-403.52-80.64-245.32-.8-454.82,88.35-601.31,246.34-148.55,160.81-233.86,379.87-234.82,644.09-.58,182.31,51.57,388.64,171.6,552.87,119.84,164.25,314.08,283.83,597.4,284.87,4.79.01,9.56-.02,14.3-.1l-1.7,514.99c-.62,190.62-42.62,229.56-218.06,228.89l-.37,122.8,791.68,2.76.34-122.8c-162.87-.57-223.38-24.24-222.76-217.52l1.2-349.89,110.77.47s405.56,690.79,416.74,690.79c29.03,0,487.28,1.43,487.3,1.43l.36-122.05s-92.08,14.73-177.56-60.25ZM1593.33,1789.84l.3-86.62c8-.26,15.93-.39,23.77-.37,25.39.1,48.56.19,67.64,5.45,21.01,2.68,41.57,8.1,61.17,16.13l6.46-18.55c61.97-179.39,113.3-374.86,130.76-525.4h0s-99.35-.29-99.35-.29c-50.95,135.17-114.36,236.33-189.7,303.8l1.43-417.5,102.38.34c202.56.63,308.66,136.81,307.99,343.06-.91,268.99-109.9,386.25-412.86,379.94Z"/></svg>